HIERARCHY
ROOT mixamorig:Hips
{
  OFFSET 0.000000 0.000000 0.000000
  CHANNELS 6 Xposition Yposition Zposition Xrotation Yrotation Zrotation
  JOINT mixamorig:Spine
  {
    OFFSET 0.785918 22.667751 -11.192521
    CHANNELS 3 Xrotation Yrotation Zrotation
    JOINT mixamorig:Spine2
    {
      OFFSET 0.785918 22.667751 -11.192521
      CHANNELS 3 Xrotation Yrotation Zrotation
      JOINT mixamorig:Neck
      {
        OFFSET 0.000000 4.280912 0.000000
        CHANNELS 3 Xrotation Yrotation Zrotation
        JOINT mixamorig:Head
        {
          OFFSET 0.000000 4.254871 0.000000
          CHANNELS 3 Xrotation Yrotation Zrotation
          End Site
          {
            OFFSET 0.000000 1.276461 0.000000
          }
        }
      }
      JOINT mixamorig:LeftShoulder
      {
        OFFSET 16.621605 2.780659 -2.297863
        CHANNELS 3 Xrotation Yrotation Zrotation
        JOINT mixamorig:LeftArm
        {
          OFFSET 7.570161 -18.010043 0.790673
          CHANNELS 3 Xrotation Yrotation Zrotation
          JOINT mixamorig:LeftForeArm
          {
            OFFSET 4.258502 -21.330331 -3.694189
            CHANNELS 3 Xrotation Yrotation Zrotation
            JOINT mixamorig:LeftHand
            {
              OFFSET -1.020528 -3.245478 -1.657259
              CHANNELS 3 Xrotation Yrotation Zrotation
              End Site
              {
                OFFSET -0.306158 -0.973643 -0.497178
              }
            }
          }
        }
      }
      JOINT mixamorig:RightShoulder
      {
        OFFSET -16.621605 2.780659 2.297863
        CHANNELS 3 Xrotation Yrotation Zrotation
        JOINT mixamorig:RightArm
        {
          OFFSET -7.047239 -26.880381 -0.525442
          CHANNELS 3 Xrotation Yrotation Zrotation
          JOINT mixamorig:RightForeArm
          {
            OFFSET -7.219958 -17.761464 -6.028907
            CHANNELS 3 Xrotation Yrotation Zrotation
            JOINT mixamorig:RightHand
            {
              OFFSET 1.362391 -2.129385 -3.788414
              CHANNELS 3 Xrotation Yrotation Zrotation
              End Site
              {
                OFFSET 0.408717 -0.638815 -1.136524
              }
            }
          }
        }
      }
    }
  }
  JOINT mixamorig:LeftUpLeg
  {
    OFFSET 10.014631 -0.404759 2.482655
    CHANNELS 3 Xrotation Yrotation Zrotation
    JOINT mixamorig:LeftLeg
    {
      OFFSET 2.113296 -38.097659 -0.269871
      CHANNELS 3 Xrotation Yrotation Zrotation
      JOINT mixamorig:LeftFoot
      {
        OFFSET -0.573928 -31.710121 21.169490
        CHANNELS 3 Xrotation Yrotation Zrotation
        JOINT mixamorig:LeftToeBase
        {
          OFFSET -0.179441 -4.917473 -4.664447
          CHANNELS 3 Xrotation Yrotation Zrotation
          End Site
          {
            OFFSET -0.053832 -1.475242 -1.399334
          }
        }
      }
    }
  }
  JOINT mixamorig:RightUpLeg
  {
    OFFSET -10.014631 0.404759 -2.482655
    CHANNELS 3 Xrotation Yrotation Zrotation
    JOINT mixamorig:RightLeg
    {
      OFFSET 1.865041 -30.879068 8.259322
      CHANNELS 3 Xrotation Yrotation Zrotation
      JOINT mixamorig:RightFoot
      {
        OFFSET -5.726950 -38.744381 19.123190
        CHANNELS 3 Xrotation Yrotation Zrotation
        JOINT mixamorig:RightToeBase
        {
          OFFSET -3.558205 -3.026307 -8.262988
          CHANNELS 3 Xrotation Yrotation Zrotation
          End Site
          {
            OFFSET -1.067462 -0.907892 -2.478896
          }
        }
      }
    }
  }
}
MOTION
Frames: 15
Frame Time: 0.083333
0.111184 0.140942 0.094126 0.635841 -0.057091 -0.073260 0.000000 0.000000 0.000000 -26.053894 7.191326 3.484596 12.540438 -1.021397 -8.928327 12.761678 -0.343198 -9.550412 21.909605 -9.272711 -0.500530 -1.514983 0.401038 0.421055 0.734938 2.093896 -0.122076 0.000000 0.000000 0.000000 23.530098 -7.494588 -0.495486 0.568948 0.085545 0.040344 0.463159 -0.842679 0.208451 0.000000 0.000000 0.000000 0.068466 0.085573 0.628439 -0.743547 -0.082958 -0.660171 -1.003780 -1.045872 1.361866 0.000000 0.000000 0.000000 -0.041893 -0.060128 -0.522602 -0.072453 0.017360 0.551691 -0.137775 0.032374 -0.096314 0.000000 0.000000 0.000000
0.110929 0.140847 0.094561 0.543528 -0.055530 -0.076657 -0.000000 0.000000 0.000000 -26.053987 7.189498 3.501290 15.914574 -0.939275 -8.502476 16.087661 0.146355 -9.233635 22.508802 -9.074503 -0.447381 -1.211320 0.354313 0.370013 0.638907 1.725371 -0.088062 0.000000 0.000000 0.000000 23.870051 -7.567052 -0.433151 0.556527 0.057091 0.009238 0.352397 -0.666655 0.205445 0.000000 0.000000 0.000000 0.261641 0.087633 0.613452 -0.928299 -0.043705 -0.597289 -0.981234 -0.619712 0.812580 0.000000 0.000000 0.000000 0.080593 -0.038058 -0.442750 -0.148383 -0.022213 0.429511 -0.112977 -0.042277 -0.009488 0.000000 0.000000 0.000000
0.110296 0.140926 0.095371 1.282982 -0.160900 -0.243150 -0.000000 0.000000 0.000000 -26.047838 7.401231 3.669104 -10.269819 -1.674223 -11.775022 -9.702670 -3.748622 -11.641937 18.118909 -10.723233 -1.132913 -2.495880 0.883190 0.894328 1.503434 3.789181 -0.108419 0.000000 0.000000 0.000000 21.251310 -7.243425 -1.108759 1.446422 0.142069 -0.094053 0.810507 -1.435922 0.698575 0.000000 0.000000 0.000000 1.363365 0.267145 1.702799 -3.068594 -0.029020 -1.516055 -2.770204 -0.618762 0.843168 0.000000 0.000000 0.000000 0.583752 -0.046966 -1.058788 -0.528739 -0.213073 0.841554 -0.211374 -0.231350 0.208406 0.000000 0.000000 0.000000
0.109633 0.141051 0.096433 1.339046 -0.262346 -0.451452 -0.000000 0.000000 0.000000 -26.042402 7.612340 3.983730 -10.355066 -2.010065 -11.767543 -9.710314 -4.097920 -11.567468 18.484067 -10.787301 -1.391612 -1.516631 1.013333 0.935909 1.445992 2.998261 0.265485 0.000000 0.000000 0.000000 21.481778 -7.558139 -1.468014 1.619893 0.277036 -0.448903 1.011805 -1.196302 1.559927 0.000000 0.000000 0.000000 3.832740 0.481584 2.376728 -5.580322 0.111290 -1.811494 -3.943123 1.394912 -1.673809 0.000000 0.000000 0.000000 1.614478 0.065700 -1.173090 -0.826790 -0.704075 0.364070 0.080939 -0.424857 0.778858 0.000000 0.000000 0.000000
0.109276 0.140978 0.097793 1.555056 -0.385883 -0.698050 -0.000000 0.000000 0.000000 -26.037424 7.842352 4.321903 -10.584433 -2.902406 -11.765321 -9.728967 -5.029435 -11.382194 18.863764 -10.780003 -1.610126 -1.033785 1.030199 0.770000 1.224200 2.396921 0.843138 0.000000 0.000000 0.000000 21.964887 -7.984829 -1.984366 1.145800 0.654278 -0.731810 1.765367 -1.439819 2.882395 0.000000 0.000000 0.000000 6.697435 0.774570 2.600395 -7.442789 -0.018818 -1.920923 -4.108066 1.628831 -1.773108 0.000000 0.000000 0.000000 2.131725 0.143413 -1.426011 -0.588101 -1.157867 0.027255 0.724259 0.005460 0.928760 0.000000 0.000000 0.000000
0.109346 0.140909 0.099501 2.025708 -0.512665 -0.939806 -0.000000 0.000000 0.000000 -26.036305 7.974060 4.569373 -10.958606 -3.996933 -11.694930 -9.843214 -6.179673 -11.078342 18.754228 -10.725486 -1.671431 -1.562455 0.899365 0.333866 1.286923 2.418852 1.329086 0.000000 0.000000 0.000000 22.135484 -8.256211 -2.147428 1.533334 0.511421 -0.703761 1.257870 -1.533157 3.517934 0.000000 0.000000 0.000000 9.972386 1.119462 2.767616 -10.727060 -0.134951 -2.022579 -3.484380 2.292617 -2.327310 0.000000 0.000000 0.000000 3.220770 0.346385 -1.540601 -1.878753 -1.559719 -0.211870 1.250245 -0.206541 1.334869 0.000000 0.000000 0.000000
0.109264 0.140733 0.101378 2.412670 -0.599895 -1.105768 -0.000000 0.000000 0.000000 -26.043156 7.835956 4.630131 -11.172806 -4.187965 -11.608839 -10.014224 -6.398931 -10.942857 18.421639 -10.501787 -1.448658 -1.910681 0.854429 -0.360221 1.293960 2.594298 1.662589 0.000000 0.000000 0.000000 22.066267 -8.151901 -2.166794 1.930257 0.294635 -0.510972 0.088970 -1.819236 3.520072 0.000000 0.000000 0.000000 10.111264 1.284815 2.706055 -10.496998 -0.276990 -1.880021 -3.338297 3.188405 -3.186114 0.000000 0.000000 0.000000 5.126021 0.604031 -1.696942 -3.675646 -2.224642 -0.781073 1.218482 -0.062002 2.097664 0.000000 0.000000 0.000000
0.108763 0.140703 0.102864 2.682749 -0.625650 -1.148304 0.000000 0.000000 0.000000 -26.049432 7.659386 4.560387 -11.295334 -4.177052 -11.496886 -10.148373 -6.394086 -10.827813 17.584881 -10.537966 -1.601892 -2.215236 0.906323 -0.080740 1.576836 2.837714 1.792358 0.000000 0.000000 0.000000 21.749605 -7.923271 -2.139671 2.223031 0.060103 -0.129549 -0.993382 -2.320673 3.197894 0.000000 0.000000 0.000000 11.543065 1.470512 2.294911 -11.901726 -0.481792 -1.534925 -3.153254 5.893223 -6.018049 0.000000 0.000000 0.000000 6.327313 0.691435 -2.118534 -4.832167 -2.773312 -1.217119 1.613857 -0.808771 3.068487 0.000000 0.000000 0.000000
0.108191 0.141854 0.103515 2.947857 -0.656498 -1.202597 0.000000 0.000000 0.000000 -26.054664 7.523643 4.522565 -11.411286 -4.091960 -11.375582 -10.295340 -6.312482 -10.719895 15.948272 -10.947447 -1.891649 -1.927428 1.239845 0.525564 1.978770 2.874851 2.270505 0.000000 0.000000 0.000000 21.178985 -7.679930 -1.783475 2.649542 -0.313658 0.223650 -1.434651 -2.933360 2.869117 0.000000 0.000000 0.000000 12.362053 1.632561 1.831310 -13.441943 -0.501425 -0.869981 -2.820078 9.939947 -10.739930 0.000000 0.000000 0.000000 5.342275 0.531920 -2.653332 -4.462979 -2.889085 -1.272986 2.405009 -0.297451 3.444729 0.000000 0.000000 0.000000
0.107603 0.144467 0.105045 2.952333 -0.712270 -1.323005 -0.000000 0.000000 0.000000 -26.056387 7.542229 4.661864 -11.422638 -4.086563 -11.357535 -10.309652 -6.306239 -10.702447 15.641142 -11.075980 -1.853899 -2.086986 1.162064 1.488904 1.808195 2.404861 3.083887 0.000000 0.000000 0.000000 21.132915 -7.699204 -1.259671 2.849688 -0.503371 0.000863 -1.761479 -2.363543 2.331876 0.000000 0.000000 0.000000 8.798362 1.516992 1.415644 -10.158583 -0.301276 0.077849 -2.501563 11.074469 -12.512837 0.000000 0.000000 0.000000 4.761638 0.447660 -2.954965 -4.196616 -2.723896 -0.808594 2.392820 1.047906 3.072748 0.000000 0.000000 0.000000
0.107303 0.147037 0.108133 2.865042 -0.782786 -1.478987 -0.000000 0.000000 0.000000 -26.055539 7.680610 4.903619 -11.390327 -3.987715 -11.436841 -10.293468 -6.215728 -10.805656 17.138302 -10.598198 -1.183033 -2.279369 0.502943 3.430884 1.486457 0.186969 4.536284 0.000000 0.000000 0.000000 22.762427 -8.257797 -0.612374 3.577938 -0.233631 -2.463828 -2.580458 1.984567 2.974847 0.000000 0.000000 0.000000 3.541930 1.247665 1.035826 -5.281409 -0.015562 0.998016 -1.107563 11.904717 -13.692726 0.000000 0.000000 0.000000 3.918840 0.355649 -3.096625 -3.362842 -2.503721 -0.458616 2.312583 2.058647 2.745644 0.000000 0.000000 0.000000
0.107325 0.148790 0.111153 2.782043 -0.906358 -1.749181 -0.000000 0.000000 0.000000 -26.053880 7.938278 5.319307 -11.374499 -3.871713 -11.525717 -10.296149 -6.113267 -10.921489 18.818076 -10.084917 0.433833 -3.139035 -0.724007 8.093906 -0.147795 -4.667908 9.436984 0.000000 0.000000 0.000000 25.613126 -9.250567 -0.340443 4.574252 1.364003 -8.320365 -3.714151 12.433077 6.522378 0.000000 0.000000 0.000000 0.356513 1.103222 1.290880 -3.218697 0.218949 1.085534 -1.842535 11.825143 -14.010971 0.000000 0.000000 0.000000 3.015261 0.393123 -2.748178 -2.020738 -2.249345 -0.326545 1.831732 1.676126 2.711415 0.000000 0.000000 0.000000
0.107331 0.150232 0.112597 2.791317 -0.985819 -1.920292 -0.000000 0.000000 0.000000 -26.056101 8.014043 5.536758 -11.355597 -3.490267 -11.446292 -10.375872 -5.716640 -10.925277 18.590708 -9.936343 3.904413 -3.792894 -1.649143 14.276260 -5.011798 -11.625114 18.931103 0.000000 0.000000 0.000000 26.155088 -9.425028 -1.252764 4.275508 5.468597 -17.640554 -2.309559 25.020709 17.289632 0.000000 0.000000 0.000000 -2.017888 0.970931 1.412479 -1.447500 0.379124 1.181295 -2.479080 11.361056 -13.737352 0.000000 0.000000 0.000000 4.608719 0.689611 -2.621287 -3.201536 -2.479441 -0.186179 1.217575 1.789553 2.631379 0.000000 0.000000 0.000000
0.106279 0.152199 0.113215 2.765734 -1.016817 -1.987898 0.000000 0.000000 0.000000 -26.059451 7.972784 5.598098 -11.295502 -3.030897 -11.236507 -10.444351 -5.210355 -10.814227 17.973919 -9.590972 9.919756 -5.583142 -2.009939 17.487052 -13.297374 -17.034431 31.089710 0.000000 0.000000 0.000000 26.366918 -9.304299 -3.525290 3.888465 9.112172 -24.748001 0.338403 33.890249 36.730868 0.000000 0.000000 0.000000 -1.689287 1.032961 1.298060 -1.764975 0.224500 1.170185 -2.031605 10.183412 -12.015398 0.000000 0.000000 0.000000 5.623105 0.854502 -2.594746 -4.562680 -2.610486 -0.086366 1.684836 2.702616 2.156296 0.000000 0.000000 0.000000
0.104846 0.153527 0.113446 2.748330 -1.066816 -2.096212 -0.000000 0.000000 0.000000 -26.066889 7.844467 5.666988 -11.250102 -2.692191 -11.223614 -10.477729 -4.862118 -10.874633 17.526878 -8.857852 18.211558 -7.405579 -1.900919 19.500077 -25.818343 -19.256243 46.019923 0.000000 0.000000 0.000000 26.747045 -9.017794 -7.642277 2.960950 12.219614 -28.448159 1.401508 42.623143 58.832913 0.000000 0.000000 0.000000 -1.281692 1.126782 1.041782 -1.693215 -0.194337 0.982433 -1.869439 8.752037 -9.365731 0.000000 0.000000 0.000000 5.869577 0.940460 -2.531104 -4.472044 -2.710288 -0.188252 1.735392 3.757487 1.788847 0.000000 0.000000 0.000000
